<svg width="520" height="88" viewBox="0 0 520 88" fill="none" xmlns="http://www.w3.org/2000/svg">
    <path fill-rule="evenodd" clip-rule="evenodd" d="M96.0948 6.43675H109.979V65.7417H96.0948V6.43675ZM115.119 43.4027C115.118 30.5339 125.579 20.1021 138.487 20.1021L138.493 20.1082C151.26 20.1082 161.627 30.3162 161.853 42.9915C161.835 44.1888 161.762 45.4285 161.611 46.7166H129.312C129.537 49.5347 130.453 51.6997 132.067 53.2176C133.735 54.681 135.767 55.4128 138.157 55.4128C141.717 55.4128 144.198 53.9493 145.586 51.0224H160.574C157.409 60.1479 148.718 66.7032 138.491 66.7032C125.584 66.7032 115.12 56.2715 115.119 43.4027ZM129.391 38.9881H147.247C147.247 36.6054 146.409 34.7126 144.741 33.3036C143.073 31.8945 140.871 31.193 138.482 31.193C136.092 31.193 134.06 31.8703 132.392 33.2249C130.78 34.5785 129.78 36.4995 129.391 38.9881ZM66.8991 20.1021C53.992 20.1021 43.5344 30.5339 43.5409 43.4027C43.5474 56.2715 54.0155 66.7032 66.9226 66.7032C77.1489 66.7032 85.8373 60.1479 88.9989 51.0224H74.0113C72.6238 53.9493 70.1437 55.4128 66.5834 55.4128C64.1936 55.4128 62.1613 54.681 60.4926 53.2176C58.8784 51.6997 57.9615 49.5347 57.7356 46.7166H90.0339C90.1849 45.4285 90.257 44.1888 90.2746 42.9915C90.0438 30.3162 79.6729 20.1082 66.9052 20.1082L66.8991 20.1021ZM75.6671 38.9881H57.8115C58.1991 36.4995 59.1986 34.5785 60.81 33.2249C62.4773 31.8703 64.5089 31.193 66.8987 31.193C69.2884 31.193 71.4905 31.8945 73.1592 33.3036C74.8279 34.7126 75.6659 36.6054 75.6671 38.9881ZM216.146 22.8671C218.851 21.3195 221.804 20.5455 224.993 20.545C230.614 20.5456 235.084 22.2267 238.383 25.5944C241.737 28.9567 243.417 33.6312 243.417 39.6179V65.7418H229.618V41.4562C229.618 38.5717 228.836 36.3524 227.265 34.8043C225.748 33.2018 223.637 32.3975 220.932 32.3975C218.227 32.3975 216.092 33.2018 214.521 34.8043C213.004 36.3524 212.246 38.5717 212.246 41.4562V65.7418H198.447V41.4562C198.447 38.5717 197.665 36.3524 196.094 34.8043C194.577 33.2018 192.466 32.3975 189.761 32.3975C187.056 32.3975 184.921 33.2018 183.35 34.8043C181.833 36.3524 181.075 38.5717 181.075 41.4562V65.7418H167.191V21.0227H181.075V26.6345C182.483 24.766 184.32 23.2965 186.595 22.2261C188.87 21.1074 191.441 20.545 194.31 20.545C197.719 20.545 200.752 21.2646 203.403 22.7099C206.108 24.1491 208.219 26.2052 209.735 28.8781C211.3 26.4229 213.441 24.4152 216.146 22.8671ZM328.494 20.545C325.516 20.545 322.841 21.1316 320.457 22.3108C318.073 23.4356 316.181 24.9837 314.774 26.9611V21.0288H300.889V65.7479H314.774V41.4623C314.774 38.4689 315.556 36.1468 317.127 34.4899C318.698 32.8329 320.809 32.0045 323.459 32.0045C326.11 32.0045 328.221 32.8329 329.792 34.4899C331.363 36.1468 332.145 38.4689 332.145 41.4623V65.7479H345.945V39.6239C345.945 33.6916 344.349 29.0474 341.153 25.6791C338.017 22.2624 333.789 20.5511 328.488 20.5511L328.494 20.545ZM369.182 50.3574C369.182 51.6939 369.509 52.6554 370.158 53.2419V53.2359C370.807 53.8225 371.887 54.1188 373.403 54.1188H378.353V65.7415H371.293C366.258 65.7415 362.334 64.5442 359.519 62.1374C356.705 59.6762 355.298 55.6971 355.298 50.1941V32.4033H349.778V21.0224H355.298V10.1254H369.182V21.0224H378.274V32.4033H369.182V50.3574ZM416.457 27.3542C415.159 25.2679 413.291 23.5868 410.859 22.3047C408.475 21.0227 405.691 20.3817 402.494 20.3817C398.758 20.3817 395.379 21.319 392.347 23.1876C389.314 25.0562 386.906 27.7291 385.122 31.2002C383.388 34.6713 382.526 38.7048 382.526 43.3006C382.526 47.8965 383.394 51.9542 385.122 55.4797C386.906 58.9508 389.314 61.6479 392.347 63.5769C395.379 65.4455 398.734 66.3828 402.415 66.3828C405.606 66.3828 408.396 65.7418 410.774 64.4598C413.212 63.1778 415.105 61.4967 416.457 59.4104V65.7418H430.341V21.0227H416.457V27.3542ZM413.534 51.4765C411.641 53.4539 409.312 54.4396 406.552 54.4396C403.792 54.4396 401.439 53.4539 399.486 51.4765C397.593 49.4446 396.647 46.7234 396.647 43.3006C396.647 39.8779 397.593 37.2111 399.486 35.2881C401.433 33.3107 403.786 32.325 406.552 32.325C409.318 32.325 411.641 33.3107 413.534 35.2881C415.481 37.2655 416.457 39.9626 416.457 43.3853C416.457 46.808 415.487 49.5051 413.534 51.4825V51.4765ZM450.587 21.0227V28.4789C452.212 26.0238 454.238 24.1008 456.677 22.7099C459.109 21.2646 461.814 20.545 464.792 20.545V35.0523H460.977C457.514 35.0523 454.912 35.8021 453.183 37.2958C451.454 38.735 450.587 41.299 450.587 44.9878V65.7418H436.703V21.0227H450.587ZM494.338 48.997L483.869 21.0226H468.359L486.786 64.2238L476.396 86.9795H491.335L519.746 21.0226H504.728L494.338 48.997ZM248.403 43.4021C248.403 30.5336 258.866 20.1021 271.774 20.1021L271.78 20.1082C284.548 20.1082 294.914 30.3159 295.139 42.9909C295.12 44.1882 295.048 45.4279 294.896 46.7159H262.597C262.821 49.5339 263.737 51.6988 265.351 53.2167C267.019 54.6801 269.051 55.4118 271.441 55.4118C275.001 55.4118 277.482 53.9484 278.871 51.0216H293.859C290.693 60.1468 282.001 66.702 271.774 66.702C258.867 66.702 248.404 56.2705 248.403 43.4021ZM262.677 38.9876C263.065 36.4991 264.066 34.5781 265.678 33.2246C267.346 31.87 269.378 31.1927 271.768 31.1927C274.158 31.1927 276.359 31.8942 278.027 33.3032C279.695 34.7122 280.533 36.605 280.533 38.9876H262.677Z" fill="#F2386C"/>
    <rect x="0.0334473" y="39.188" width="24.9786" height="7.5691" rx="3.78455" fill="#F2386C"/>
    <rect x="13.5898" y="27.0775" width="24.9786" height="7.5691" rx="3.78455" fill="#F2386C"/>
    <rect x="9.1261" y="51.2986" width="24.9786" height="7.5691" rx="3.78455" fill="#F2386C"/>
</svg>