<svg width="520" height="88" viewBox="0 0 520 88" fill="none" xmlns="http://www.w3.org/2000/svg">
    <path fill-rule="evenodd" clip-rule="evenodd" d="M96.0608 6.50146H109.945V65.8064H96.0608V6.50146ZM115.085 43.4674C115.083 30.5985 125.545 20.1668 138.452 20.1668L138.458 20.1729C151.226 20.1729 161.593 30.3808 161.819 43.0561C161.8 44.2535 161.728 45.4932 161.576 46.7813H129.278C129.503 49.5994 130.419 51.7644 132.032 53.2822C133.7 54.7457 135.732 55.4774 138.122 55.4774C141.683 55.4774 144.163 54.014 145.552 51.087H160.54C157.374 60.2125 148.683 66.7679 138.457 66.7679C125.55 66.7679 115.086 56.3362 115.085 43.4674ZM129.357 39.0528H147.213C147.212 36.6701 146.375 34.7773 144.707 33.3682C143.039 31.9592 140.837 31.2577 138.447 31.2577C136.058 31.2577 134.026 31.935 132.358 33.2896C130.746 34.6431 129.746 36.5642 129.357 39.0528ZM66.8651 20.1668C53.9579 20.1668 43.5003 30.5985 43.5068 43.4674C43.5133 56.3362 53.9814 66.7679 66.8886 66.7679C77.1148 66.7679 85.8033 60.2125 88.9648 51.087H73.9772C72.5897 54.014 70.1097 55.4774 66.5493 55.4774C64.1595 55.4774 62.1272 54.7457 60.4585 53.2822C58.8444 51.7644 57.9274 49.5994 57.7016 46.7813H89.9998C90.1508 45.4932 90.223 44.2535 90.2406 43.0561C90.0097 30.3808 79.6388 20.1729 66.8712 20.1729L66.8651 20.1668ZM75.633 39.0528H57.7774C58.1651 36.5642 59.1646 34.6431 60.776 33.2896C62.4433 31.935 64.4748 31.2577 66.8646 31.2577C69.2544 31.2577 71.4565 31.9592 73.1252 33.3682C74.7939 34.7773 75.6318 36.6701 75.633 39.0528ZM216.112 22.9318C218.817 21.3842 221.77 20.6102 224.959 20.6097C230.58 20.6103 235.05 22.2914 238.349 25.6591C241.703 29.0214 243.383 33.6958 243.383 39.6826V65.8065H229.584V41.5209C229.584 38.6364 228.801 36.4171 227.23 34.869C225.714 33.2665 223.603 32.4622 220.898 32.4622C218.193 32.4622 216.058 33.2665 214.487 34.869C212.97 36.4171 212.212 38.6364 212.212 41.5209V65.8065H198.413V41.5209C198.413 38.6364 197.63 36.4171 196.059 34.869C194.543 33.2665 192.432 32.4622 189.727 32.4622C187.022 32.4622 184.887 33.2665 183.316 34.869C181.799 36.4171 181.041 38.6364 181.041 41.5209V65.8065H167.157V21.0874H181.041V26.6992C182.448 24.8306 184.286 23.3612 186.561 22.2908C188.835 21.1721 191.407 20.6097 194.276 20.6097C197.685 20.6097 200.718 21.3293 203.368 22.7746C206.074 24.2138 208.185 26.2699 209.701 28.9427C211.266 26.4876 213.407 24.4799 216.112 22.9318ZM328.46 20.6097C325.482 20.6097 322.807 21.1963 320.423 22.3755C318.039 23.5003 316.147 25.0483 314.74 27.0258V21.0935H300.856V65.8126H314.74V41.527C314.74 38.5336 315.522 36.2115 317.093 34.5545C318.664 32.8976 320.775 32.0691 323.426 32.0691C326.076 32.0691 328.187 32.8976 329.758 34.5545C331.329 36.2115 332.111 38.5336 332.111 41.527V65.8126H345.911V39.6886C345.911 33.7563 344.315 29.1121 341.119 25.7438C337.983 22.3271 333.755 20.6157 328.454 20.6157L328.46 20.6097ZM369.147 50.422C369.147 51.7585 369.475 52.72 370.124 53.3065V53.3005C370.773 53.8871 371.852 54.1834 373.369 54.1834H378.318V65.8061H371.258C366.224 65.8061 362.299 64.6088 359.485 62.202C356.67 59.7408 355.263 55.7617 355.263 50.2587V32.4679H349.744V21.087H355.263V10.19H369.147V21.087H378.24V32.4679H369.147V50.422ZM416.423 27.4188C415.125 25.3325 413.257 23.6514 410.824 22.3693C408.441 21.0873 405.657 20.4463 402.46 20.4463C398.724 20.4463 395.345 21.3837 392.312 23.2522C389.28 25.1208 386.872 27.7937 385.088 31.2648C383.353 34.7359 382.492 38.7694 382.492 43.3652C382.492 47.9611 383.36 52.0188 385.088 55.5443C386.872 59.0154 389.28 61.7125 392.312 63.6415C395.345 65.5101 398.699 66.4474 402.381 66.4474C405.572 66.4474 408.362 65.8064 410.74 64.5244C413.178 63.2424 415.07 61.5613 416.423 59.475V65.8064H430.307V21.0873H416.423V27.4188ZM413.499 51.5411C411.607 53.5185 409.278 54.5042 406.518 54.5042C403.758 54.5042 401.405 53.5185 399.452 51.5411C397.559 49.5092 396.613 46.788 396.613 43.3652C396.613 39.9425 397.559 37.2757 399.452 35.3527C401.399 33.3753 403.752 32.3896 406.518 32.3896C409.284 32.3896 411.607 33.3753 413.499 35.3527C415.446 37.3301 416.423 40.0272 416.423 43.4499C416.423 46.8726 415.452 49.5697 413.499 51.5471V51.5411ZM450.553 21.0874V28.5436C452.178 26.0885 454.204 24.1655 456.642 22.7746C459.075 21.3293 461.78 20.6097 464.758 20.6097V35.1169H460.943C457.479 35.1169 454.877 35.8668 453.149 37.3605C451.42 38.7997 450.553 41.3637 450.553 45.0525V65.8065H436.669V21.0874H450.553ZM494.303 49.0619L483.834 21.0875H468.325L486.752 64.2887L476.361 87.0444H491.301L519.712 21.0875H504.694L494.303 49.0619ZM248.369 43.4667C248.369 30.5983 258.832 20.1668 271.739 20.1668L271.746 20.1729C284.514 20.1729 294.88 30.3806 295.104 43.0555C295.086 44.2529 295.013 45.4926 294.862 46.7806H262.563C262.787 49.5986 263.703 51.7635 265.316 53.2814C266.984 54.7448 269.016 55.4765 271.406 55.4765C274.967 55.4765 277.448 54.0131 278.837 51.0862H293.825C290.658 60.2115 281.967 66.7667 271.74 66.7667C258.833 66.7667 248.369 56.3352 248.369 43.4667ZM262.642 39.0523C263.031 36.5638 264.032 34.6428 265.644 33.2893C267.312 31.9347 269.344 31.2574 271.734 31.2574C274.123 31.2574 276.325 31.9589 277.993 33.3679C279.661 34.7769 280.498 36.6697 280.498 39.0523H262.642Z" fill="#4A165C"/>
    <rect y="39.2529" width="24.9786" height="7.5691" rx="3.78455" fill="#4A165C"/>
    <rect x="13.5566" y="27.1421" width="24.9786" height="7.5691" rx="3.78455" fill="#4A165C"/>
    <rect x="9.09277" y="51.3633" width="24.9786" height="7.5691" rx="3.78455" fill="#4A165C"/>
</svg>