<svg width="153" height="20" viewBox="0 0 153 20" fill="none" xmlns="http://www.w3.org/2000/svg">
<g clip-path="url(#clip0_604_36)">
<path d="M7.46497 5.2C7.46497 3.82087 8.01282 2.49823 8.98801 1.52304C9.9632 0.547856 11.2858 0 12.665 0L22.636 0C22.636 1.37913 22.0881 2.70177 21.1129 3.67696C20.1377 4.65214 18.8151 5.2 17.436 5.2H7.46497Z" fill="url(#paint0_linear_604_36)"/>
<path d="M4.11697 20.151C4.11697 18.7719 4.66482 17.4493 5.64001 16.4741C6.6152 15.4989 7.93784 14.951 9.31697 14.951H19.276C19.276 16.3302 18.7281 17.6528 17.7529 18.628C16.7777 19.6032 15.4551 20.151 14.076 20.151H4.11597H4.11697Z" fill="url(#paint1_linear_604_36)"/>
<path d="M4.51997 12.884H-0.0300293C-0.0300293 11.5048 0.517826 10.1822 1.49302 9.207C2.4682 8.23182 3.79085 7.68396 5.16997 7.68396H18.522C18.522 9.06309 17.9741 10.3857 16.9989 11.3609C16.0237 12.3361 14.7011 12.884 13.322 12.884H4.51997Z" fill="url(#paint2_linear_604_36)"/>
<path d="M28.3479 11.029C28.3479 7.36897 30.9849 5.03597 34.5529 5.03597C35.3279 5.00457 36.101 5.13279 36.8244 5.41265C37.5477 5.69251 38.2058 6.11804 38.7579 6.66285C39.3099 7.20765 39.744 7.8601 40.0334 8.57969C40.3228 9.29928 40.4611 10.0707 40.4399 10.846C40.4399 10.846 40.4399 11.415 40.3949 11.938H31.7349C31.8029 13.302 32.9849 14.211 34.7649 14.211C35.2824 14.2261 35.7974 14.1351 36.2783 13.9435C36.7592 13.7519 37.1957 13.4638 37.5609 13.097L39.5379 14.983C38.9114 15.6616 38.1475 16.199 37.2971 16.5595C36.4467 16.9201 35.5293 17.0954 34.6059 17.074C30.8789 17.074 28.3329 14.734 28.3329 11.142L28.3479 11.029V11.029ZM37.0309 9.71797C37.0309 8.67197 35.9169 7.80797 34.5529 7.80797C33.0379 7.80797 31.8709 8.64997 31.7799 9.71797H37.0299H37.0309ZM42.1219 0.94397H45.5089V16.78H42.1219V0.94397ZM47.2809 11.029C47.2809 7.36897 49.9179 5.03597 53.4859 5.03597C54.2609 5.00457 55.034 5.13279 55.7574 5.41265C56.4807 5.69251 57.1388 6.11804 57.6909 6.66285C58.2429 7.20765 58.677 7.8601 58.9664 8.57969C59.2558 9.29928 59.3941 10.0707 59.3729 10.846C59.3729 10.846 59.3729 11.415 59.3279 11.938H50.6679C50.7359 13.302 51.9179 14.211 53.6979 14.211C54.2154 14.2261 54.7304 14.1351 55.2113 13.9435C55.6922 13.7519 56.1287 13.4638 56.4939 13.097L58.4709 14.983C57.8443 15.6615 57.0804 16.1989 56.2301 16.5595C55.3797 16.92 54.4623 17.0954 53.5389 17.074C49.8119 17.074 47.2659 14.734 47.2659 11.142L47.2809 11.029V11.029ZM55.9329 9.71797C55.9329 8.67197 54.8199 7.80797 53.4559 7.80797C51.9409 7.80797 50.7739 8.64997 50.6829 9.71797H55.9329ZM61.0549 5.32997H64.4419V6.75497C64.7218 6.21684 65.1524 5.77192 65.6811 5.47462C66.2099 5.17732 66.8137 5.04053 67.4189 5.08097C68.0624 5.0171 68.7096 5.1576 69.2686 5.48253C69.8276 5.80745 70.27 6.30027 70.5329 6.89097C71.2899 5.45997 72.7369 5.08097 74.3209 5.08097C76.9349 5.08097 78.3889 6.86897 78.3889 9.82397V16.779H75.0029V10.233C75.0029 8.91397 74.4119 8.07297 73.2979 8.07297C72.1839 8.07297 71.3879 9.00497 71.3879 10.346V16.779H68.0549V10.233C68.0549 8.91397 67.4649 8.07297 66.3509 8.07297C65.2369 8.07297 64.4639 9.00497 64.4639 10.346V16.779H61.0779L61.0549 5.32997ZM80.0789 11.029C80.0789 7.36897 82.7149 5.03597 86.2839 5.03597C87.0588 5.00472 87.8319 5.13303 88.5551 5.41295C89.2783 5.69288 89.9363 6.11844 90.4882 6.66323C91.0401 7.20801 91.4742 7.86041 91.7635 8.57993C92.0528 9.29946 92.1911 10.0708 92.1699 10.846C92.1699 10.846 92.1699 11.415 92.1249 11.938H83.4649C83.5339 13.302 84.7149 14.211 86.4949 14.211C87.0125 14.2263 87.5278 14.1353 88.0088 13.9437C88.4899 13.7521 88.9266 13.4639 89.2919 13.097L91.2689 14.983C90.6423 15.6615 89.8784 16.1989 89.0281 16.5595C88.1777 16.92 87.2603 17.0954 86.3369 17.074C82.6089 17.074 80.0639 14.734 80.0639 11.142L80.0789 11.029V11.029ZM88.7609 9.71797C88.7609 8.67197 87.6469 7.80797 86.2839 7.80797C84.9199 7.80797 83.6019 8.64997 83.5109 9.71797H88.7609ZM93.8529 5.33097H97.2389V6.75497C97.7159 5.75497 98.9889 5.08097 100.58 5.08097C103.399 5.08097 104.967 6.86897 104.967 9.82397V16.779H101.58V10.233C101.613 9.94743 101.582 9.65819 101.489 9.38605C101.397 9.11391 101.245 8.86563 101.045 8.65908C100.846 8.45254 100.602 8.29285 100.333 8.1915C100.064 8.09016 99.7764 8.04967 99.4899 8.07297C99.1879 8.05995 98.8865 8.10982 98.6048 8.21943C98.3231 8.32904 98.0672 8.49599 97.8534 8.7097C97.6396 8.9234 97.4725 9.1792 97.3628 9.46088C97.2531 9.74255 97.2031 10.044 97.216 10.346V16.779H93.8299L93.8529 5.33097V5.33097ZM107.876 8.39197H106.361V5.36197H107.876V0.97397H111.172V5.35997H113.695V8.38997H111.172V16.778H107.876V8.39197ZM119.99 5.12597C121.741 5.12597 123.082 5.82297 123.4 6.82297V5.30797H126.786V16.756H123.4V15.24C123.082 16.217 121.741 16.944 119.99 16.944C118.46 16.8811 117.013 16.2291 115.953 15.1242C114.893 14.0194 114.3 12.5473 114.3 11.016C114.3 9.4846 114.893 8.01255 115.953 6.90771C117.013 5.80287 118.46 5.15083 119.99 5.08797V5.12497V5.12597ZM120.604 13.915C120.98 13.915 121.352 13.8409 121.7 13.697C122.047 13.5532 122.363 13.3423 122.628 13.0764C122.894 12.8106 123.105 12.4949 123.249 12.1476C123.393 11.8002 123.467 11.4279 123.467 11.052C123.467 10.676 123.393 10.3037 123.249 9.95635C123.105 9.60899 122.894 9.29338 122.628 9.02752C122.363 8.76167 122.047 8.55078 121.7 8.4069C121.352 8.26302 120.98 8.18897 120.604 8.18897C119.845 8.18897 119.116 8.49061 118.579 9.02752C118.043 9.56444 117.741 10.2927 117.741 11.052C117.741 11.8113 118.043 12.5395 118.579 13.0764C119.116 13.6133 119.845 13.915 120.604 13.915V13.915ZM129.037 5.33097H132.453V6.89197C132.766 6.29654 133.248 5.807 133.839 5.48493C134.429 5.16286 135.102 5.02266 135.772 5.08197C136.09 5.08197 136.476 5.12697 136.658 5.14197V8.32397C136.272 8.24144 135.878 8.20088 135.484 8.20297C133.552 8.20297 132.453 9.31597 132.453 11.18V16.771H129.067L129.037 5.33097V5.33097ZM136.999 5.33097H140.522L143.552 12.961L146.644 5.33097H150.167L143.416 21.188H139.939L141.78 16.983L136.999 5.33097V5.33097Z" fill="black"/>
</g>
<defs>
<linearGradient id="paint0_linear_604_36" x1="7.48597" y1="2.878" x2="22.768" y2="2.878" gradientUnits="userSpaceOnUse">
<stop stop-color="#FE8913"/>
<stop offset="1" stop-color="#FE10B0"/>
</linearGradient>
<linearGradient id="paint1_linear_604_36" x1="4.13797" y1="17.829" x2="19.407" y2="17.829" gradientUnits="userSpaceOnUse">
<stop stop-color="#FE8913"/>
<stop offset="1" stop-color="#FE10B0"/>
</linearGradient>
<linearGradient id="paint2_linear_604_36" x1="-0.0040293" y1="10.562" x2="18.682" y2="10.562" gradientUnits="userSpaceOnUse">
<stop stop-color="#FE8913"/>
<stop offset="1" stop-color="#FE10B0"/>
</linearGradient>
<clipPath id="clip0_604_36">
<rect width="153" height="20" fill="white"/>
</clipPath>
</defs>
</svg>
