<?xml version="1.0" encoding="UTF-8"?>
<svg xmlns="http://www.w3.org/2000/svg" xmlns:xlink="http://www.w3.org/1999/xlink" width="16px" height="16px" viewBox="0 0 16 16" version="1.1">
<defs>
<linearGradient id="linear0" gradientUnits="userSpaceOnUse" x1="64" y1="7.034" x2="64" y2="120.789" gradientTransform="matrix(0.12189,0,0,0.12189,0.199075,0.156393)">
<stop offset="0" style="stop-color:rgb(26.27451%,52.941176%,99.215686%);stop-opacity:1;"/>
<stop offset="1" style="stop-color:rgb(27.45098%,51.372549%,91.764706%);stop-opacity:1;"/>
</linearGradient>
<filter id="alpha" filterUnits="objectBoundingBox" x="0%" y="0%" width="100%" height="100%">
  <feColorMatrix type="matrix" in="SourceGraphic" values="0 0 0 0 1 0 0 0 0 1 0 0 0 0 1 0 0 0 1 0"/>
</filter>
<mask id="mask0">
  <g filter="url(#alpha)">
<rect x="0" y="0" width="16" height="16" style="fill:rgb(0%,0%,0%);fill-opacity:0.0705882;stroke:none;"/>
  </g>
</mask>
<clipPath id="clip1">
  <rect x="0" y="0" width="16" height="16"/>
</clipPath>
<g id="surface5" clip-path="url(#clip1)">
<path style=" stroke:none;fill-rule:nonzero;fill:rgb(0%,0%,0%);fill-opacity:1;" d="M 14.730469 10.699219 L 10.027344 5.992188 L 8 5.449219 L 6.179688 6.125 L 5.476562 7.957031 L 6.042969 9.996094 L 11.03125 14.988281 L 12.089844 14.9375 Z M 14.730469 10.699219 "/>
</g>
</defs>
<g id="surface1">
<path style=" stroke:none;fill-rule:nonzero;fill:url(#linear0);" d="M 3.585938 14.199219 L 0.386719 8.65625 C 0.136719 8.222656 0.136719 7.691406 0.386719 7.257812 L 3.585938 1.714844 C 3.835938 1.28125 4.300781 1.011719 4.800781 1.011719 L 11.199219 1.011719 C 11.699219 1.011719 12.164062 1.28125 12.414062 1.714844 L 15.613281 7.257812 C 15.863281 7.691406 15.863281 8.222656 15.613281 8.660156 L 12.414062 14.199219 C 12.164062 14.632812 11.699219 14.902344 11.199219 14.902344 L 4.800781 14.902344 C 4.300781 14.902344 3.835938 14.632812 3.585938 14.199219 Z M 3.585938 14.199219 "/>
<use xlink:href="#surface5" mask="url(#mask0)"/>
<path style=" stroke:none;fill-rule:nonzero;fill:rgb(100%,100%,100%);fill-opacity:1;" d="M 8 5.128906 C 6.4375 5.128906 5.171875 6.394531 5.171875 7.957031 C 5.171875 9.519531 6.4375 10.785156 8 10.785156 C 9.5625 10.785156 10.828125 9.519531 10.828125 7.957031 C 10.828125 6.394531 9.5625 5.128906 8 5.128906 M 8 10.101562 C 6.816406 10.101562 5.855469 9.140625 5.855469 7.957031 C 5.855469 6.773438 6.816406 5.8125 8 5.8125 C 9.183594 5.8125 10.144531 6.773438 10.144531 7.957031 C 10.144531 9.140625 9.183594 10.101562 8 10.101562 "/>
<path style=" stroke:none;fill-rule:nonzero;fill:rgb(100%,100%,100%);fill-opacity:1;" d="M 6.65625 7.847656 L 6.65625 8.726562 C 6.789062 8.949219 6.972656 9.136719 7.191406 9.273438 L 7.191406 7.847656 Z M 7.714844 7.105469 L 7.714844 9.472656 C 7.808594 9.488281 7.898438 9.5 7.996094 9.5 C 8.082031 9.5 8.167969 9.492188 8.25 9.476562 L 8.25 7.105469 Z M 8.824219 8.214844 L 8.824219 9.257812 C 9.046875 9.113281 9.234375 8.917969 9.359375 8.683594 L 9.359375 8.214844 Z M 10.035156 9.699219 L 9.742188 9.992188 C 9.691406 10.042969 9.691406 10.128906 9.742188 10.179688 L 10.851562 11.289062 C 10.90625 11.339844 10.988281 11.339844 11.039062 11.289062 L 11.332031 10.996094 C 11.382812 10.945312 11.382812 10.863281 11.332031 10.808594 L 10.222656 9.699219 C 10.171875 9.648438 10.085938 9.648438 10.035156 9.699219 "/>
</g>
</svg>
