<?xml version="1.0" encoding="UTF-8"?>
<svg xmlns="http://www.w3.org/2000/svg" xmlns:xlink="http://www.w3.org/1999/xlink" width="16px" height="16px" viewBox="0 0 16 16" version="1.1">
<g id="surface1">
<path style=" stroke:none;fill-rule:nonzero;fill:rgb(54.901961%,19.215686%,13.72549%);fill-opacity:1;" d="M 2.457031 2.769531 L 1.394531 3.304688 L 1.394531 12.644531 L 2.457031 13.175781 L 2.464844 13.167969 L 2.464844 2.777344 L 2.457031 2.769531 "/>
<path style=" stroke:none;fill-rule:nonzero;fill:rgb(87.843137%,32.156863%,26.27451%);fill-opacity:1;" d="M 8.15625 11.820312 L 2.457031 13.175781 L 2.457031 2.769531 L 8.15625 4.097656 L 8.15625 11.820312 "/>
<path style=" stroke:none;fill-rule:nonzero;fill:rgb(54.901961%,19.215686%,13.72549%);fill-opacity:1;" d="M 5.582031 9.695312 L 8 10.003906 L 8.015625 9.96875 L 8.027344 6.007812 L 8 5.976562 L 5.582031 6.277344 L 5.582031 9.695312 "/>
<path style=" stroke:none;fill-rule:nonzero;fill:rgb(54.901961%,19.215686%,13.72549%);fill-opacity:1;" d="M 8 11.835938 L 13.542969 13.179688 L 13.550781 13.164062 L 13.550781 2.78125 L 13.542969 2.769531 L 8 4.113281 L 8 11.835938 "/>
<path style=" stroke:none;fill-rule:nonzero;fill:rgb(87.843137%,32.156863%,26.27451%);fill-opacity:1;" d="M 10.417969 9.695312 L 8 10.003906 L 8 5.976562 L 10.417969 6.277344 L 10.417969 9.695312 "/>
<path style=" stroke:none;fill-rule:nonzero;fill:rgb(36.862745%,12.156863%,9.411765%);fill-opacity:1;" d="M 10.417969 4.625 L 8 5.066406 L 5.582031 4.625 L 7.996094 3.992188 L 10.417969 4.625 "/>
<path style=" stroke:none;fill-rule:nonzero;fill:rgb(94.901961%,69.019608%,66.27451%);fill-opacity:1;" d="M 10.417969 11.34375 L 8 10.902344 L 5.582031 11.34375 L 7.996094 12.019531 L 10.417969 11.34375 "/>
<path style=" stroke:none;fill-rule:nonzero;fill:rgb(54.901961%,19.215686%,13.72549%);fill-opacity:1;" d="M 5.582031 4.625 L 8 4.027344 L 8.019531 4.023438 L 8.019531 0.015625 L 8 0 L 5.582031 1.207031 L 5.582031 4.625 "/>
<path style=" stroke:none;fill-rule:nonzero;fill:rgb(87.843137%,32.156863%,26.27451%);fill-opacity:1;" d="M 10.417969 4.625 L 8 4.027344 L 8 0 L 10.417969 1.207031 L 10.417969 4.625 "/>
<path style=" stroke:none;fill-rule:nonzero;fill:rgb(54.901961%,19.215686%,13.72549%);fill-opacity:1;" d="M 8 15.96875 L 5.582031 14.761719 L 5.582031 11.34375 L 8 11.941406 L 8.035156 11.984375 L 8.027344 15.902344 L 8 15.96875 "/>
<path style=" stroke:none;fill-rule:nonzero;fill:rgb(87.843137%,32.156863%,26.27451%);fill-opacity:1;" d="M 8 15.96875 L 10.417969 14.761719 L 10.417969 11.34375 L 8 11.941406 L 8 15.96875 M 13.542969 2.769531 L 14.605469 3.304688 L 14.605469 12.644531 L 13.542969 13.179688 L 13.542969 2.769531 "/>
</g>
</svg>
