<svg width="153" height="20" fill="none" xmlns="http://www.w3.org/2000/svg">
  <g clipPath="url(#logo_svg__a)">
  <path d="M7.465 5.2a5.2 5.2 0 0 1 5.2-5.2h9.971a5.2 5.2 0 0 1-5.2 5.2H7.465Z" fill="url(#logo_svg__b)">
  </path>
  <path d="M4.117 20.151a5.2 5.2 0 0 1 5.2-5.2h9.959a5.2 5.2 0 0 1-5.2 5.2h-9.96Z" fill="url(#logo_svg__c)">
  </path>
  <path d="M4.52 12.884H-.03a5.2 5.2 0 0 1 5.2-5.2h13.352a5.2 5.2 0 0 1-5.2 5.2H4.52Z" fill="url(#logo_svg__d)"></path>
  <path
    className="fill-slate-700 dark:fill-white"
  d="M28.348 11.029c0-3.66 2.637-5.993 6.205-5.993a5.66 5.66 0 0 1 5.887 5.81s0 .569-.045 1.092h-8.66c.068 1.364 1.25 2.273 3.03 2.273a3.789 3.789 0 0 0 2.796-1.114l1.977 1.886a6.507 6.507 0 0 1-4.932 2.091c-3.727 0-6.273-2.34-6.273-5.932l.015-.113Zm8.683-1.311c0-1.046-1.114-1.91-2.478-1.91-1.515 0-2.682.842-2.773 1.91h5.25ZM42.122.944h3.387V16.78h-3.387V.944Zm5.159 10.085c0-3.66 2.637-5.993 6.205-5.993a5.66 5.66 0 0 1 5.887 5.81s0 .569-.045 1.092h-8.66c.068 1.364 1.25 2.273 3.03 2.273a3.789 3.789 0 0 0 2.796-1.114l1.977 1.886a6.508 6.508 0 0 1-4.932 2.091c-3.727 0-6.273-2.34-6.273-5.932l.015-.113Zm8.652-1.311c0-1.046-1.113-1.91-2.477-1.91-1.515 0-2.682.842-2.773 1.91h5.25Zm5.122-4.388h3.387v1.425a3.121 3.121 0 0 1 2.977-1.674 3.076 3.076 0 0 1 3.114 1.81c.757-1.431 2.204-1.81 3.788-1.81 2.614 0 4.068 1.788 4.068 4.743v6.955h-3.386v-6.546c0-1.319-.591-2.16-1.705-2.16s-1.91.932-1.91 2.273v6.433h-3.333v-6.546c0-1.319-.59-2.16-1.704-2.16-1.114 0-1.887.932-1.887 2.273v6.433h-3.386L61.055 5.33Zm19.024 5.699c0-3.66 2.636-5.993 6.205-5.993a5.66 5.66 0 0 1 5.886 5.81s0 .569-.045 1.092h-8.66c.069 1.364 1.25 2.273 3.03 2.273a3.789 3.789 0 0 0 2.797-1.114l1.977 1.886a6.508 6.508 0 0 1-4.932 2.091c-3.728 0-6.273-2.34-6.273-5.932l.015-.113Zm8.682-1.311c0-1.046-1.114-1.91-2.477-1.91-1.364 0-2.682.842-2.773 1.91h5.25Zm5.092-4.387h3.386v1.424c.477-1 1.75-1.674 3.341-1.674 2.819 0 4.387 1.788 4.387 4.743v6.955h-3.387v-6.546a1.945 1.945 0 0 0-2.09-2.16 2.182 2.182 0 0 0-2.274 2.273v6.433H93.83l.023-11.448Zm14.023 3.061h-1.515v-3.03h1.515V.974h3.296V5.36h2.523v3.03h-2.523v8.388h-3.296V8.392Zm12.114-3.266c1.751 0 3.092.697 3.41 1.697V5.308h3.386v11.448H123.4V15.24c-.318.977-1.659 1.704-3.41 1.704a5.933 5.933 0 0 1 0-11.856v.037Zm.614 8.789a2.863 2.863 0 1 0 0-5.726 2.863 2.863 0 0 0 0 5.726Zm8.433-8.584h3.416v1.561a3.41 3.41 0 0 1 3.319-1.81c.318 0 .704.045.886.06v3.182a5.474 5.474 0 0 0-1.174-.121c-1.932 0-3.031 1.113-3.031 2.977v5.591h-3.386l-.03-11.44Zm7.962 0h3.523l3.03 7.63 3.092-7.63h3.523l-6.751 15.857h-3.477l1.841-4.205-4.781-11.652Z">
  </path></g><defs>
    <linearGradient id="logo_svg__b" x1="7.486" y1="2.878" x2="22.768" y2="2.878" gradientUnits="userSpaceOnUse">
      <stop stop-color="#FE8913"></stop><stop offset="1" stop-color="#FE10B0"></stop></linearGradient>
      <linearGradient id="logo_svg__c" x1="4.138" y1="17.829" x2="19.407" y2="17.829" gradientUnits="userSpaceOnUse">
        <stop stop-color="#FE8913"></stop><stop offset="1" stop-color="#FE10B0"></stop></linearGradient><linearGradient id="logo_svg__d" x1="-0.004" y1="10.562" x2="18.682" y2="10.562" gradientUnits="userSpaceOnUse"><stop stop-color="#FE8913"></stop><stop offset="1" stop-color="#FE10B0"></stop>
  </linearGradient><clipPath id="logo_svg__a"><path fill="#fff" d="M0 0h153v23.611H0z"></path>
  </clipPath>
  </defs>
</svg>